<svg width="21" height="21" viewBox="0 0 21 21" fill="none" xmlns="http://www.w3.org/2000/svg">
<g clip-path="url(#clip0_1_282)">
<path d="M20.4316 9.14582C20.6241 8.95959 20.7602 8.72291 20.8244 8.46289C20.8885 8.20288 20.8782 7.93005 20.7945 7.67566C20.7127 7.42053 20.5606 7.19362 20.3558 7.02093C20.1509 6.84824 19.9016 6.73677 19.6363 6.69929L14.7937 5.99564C14.6921 5.98089 14.5956 5.94164 14.5126 5.88129C14.4296 5.82094 14.3625 5.74129 14.3171 5.64923L12.1521 1.26116C12.0344 1.02054 11.8513 0.817934 11.6238 0.676558C11.3963 0.535182 11.1336 0.460754 10.8657 0.461803C10.598 0.460829 10.3353 0.535292 10.1079 0.676664C9.88046 0.818036 9.69745 1.0206 9.5798 1.26116L7.4144 5.64923C7.32229 5.83625 7.14368 5.96561 6.93743 5.99564L2.09482 6.69969C1.8296 6.73707 1.58029 6.84846 1.37551 7.02109C1.17072 7.19372 1.01875 7.42059 0.937032 7.67566C0.853324 7.93005 0.842962 8.20288 0.907133 8.46289C0.971303 8.72291 1.10741 8.95959 1.29987 9.14582L4.80367 12.5611C4.95305 12.7069 5.02153 12.9167 4.98629 13.1218L4.1593 17.9448C4.11302 18.2085 4.14197 18.48 4.24283 18.728C4.34369 18.976 4.51238 19.1907 4.72958 19.3473C4.94552 19.5059 5.20188 19.6003 5.46913 19.6197C5.73638 19.639 6.00366 19.5825 6.24019 19.4566L10.571 17.1795C10.6619 17.1317 10.7631 17.1068 10.8657 17.1068C10.9684 17.1068 11.0696 17.1317 11.1605 17.1795L15.4917 19.4566C15.7284 19.5818 15.9956 19.6379 16.2627 19.6185C16.5298 19.5992 16.7861 19.5052 17.0023 19.3473C17.2195 19.1907 17.3882 18.976 17.4891 18.728C17.5899 18.48 17.6189 18.2085 17.5726 17.9448L16.7452 13.1222C16.7279 13.0209 16.7355 12.917 16.7673 12.8193C16.7991 12.7216 16.8542 12.6332 16.9278 12.5615L20.4316 9.14582ZM15.9563 13.2576L16.7832 18.0801C16.8046 18.1967 16.7923 18.3169 16.7477 18.4267C16.703 18.5364 16.628 18.6311 16.5313 18.6997C16.4362 18.7702 16.3231 18.8122 16.205 18.8208C16.0869 18.8293 15.9688 18.8042 15.8645 18.7481L11.5333 16.4706C11.3274 16.3626 11.0983 16.3062 10.8657 16.3063C10.6331 16.3064 10.4041 16.3629 10.1981 16.471L5.86775 18.7481C5.76338 18.8041 5.64525 18.8293 5.52712 18.8207C5.40899 18.8122 5.29573 18.7702 5.20055 18.6997C5.10395 18.6311 5.02892 18.5364 4.9843 18.4266C4.93968 18.3169 4.92731 18.1967 4.94865 18.0801L5.77564 13.2576C5.81496 13.0284 5.79796 12.793 5.7261 12.5719C5.65424 12.3507 5.52967 12.1503 5.36314 11.988L1.85894 8.57234C1.77306 8.4907 1.71235 8.38619 1.68396 8.27116C1.65558 8.15612 1.66071 8.03537 1.69875 7.92316C1.77484 7.68847 1.96587 7.52748 2.20976 7.49184L7.05197 6.78819C7.28218 6.75497 7.50083 6.66617 7.68902 6.52947C7.87721 6.39278 8.02928 6.2123 8.13206 6.00365L10.2975 1.61559C10.3486 1.50875 10.4293 1.41877 10.5299 1.35626C10.6305 1.29374 10.7469 1.2613 10.8653 1.26276C11.112 1.26276 11.3243 1.39452 11.4336 1.61559L13.599 6.00365C13.7017 6.21227 13.8537 6.39273 14.0419 6.52943C14.23 6.66612 14.4486 6.75494 14.6787 6.78819L19.5213 7.49184C19.6388 7.50755 19.7492 7.5565 19.8398 7.63292C19.9303 7.70934 19.9971 7.81004 20.0323 7.92316C20.1084 8.15744 20.0488 8.40013 19.8722 8.57234L16.3683 11.9876C16.2018 12.15 16.0773 12.3505 16.0055 12.5717C15.9337 12.7929 15.9168 13.0283 15.9563 13.2576Z" fill="#ECA500"/>
</g>
<defs>
<clipPath id="clip0_1_282">
<rect width="20" height="20" fill="white" transform="translate(0.865723 0.0424805)"/>
</clipPath>
</defs>
</svg>
